<?xml version="1.0" encoding="UTF-8" standalone="no"?>
<!DOCTYPE svg PUBLIC "-//W3C//DTD SVG 1.1//EN"
 "http://www.w3.org/Graphics/SVG/1.1/DTD/svg11.dtd">
<!-- Generated by graphviz version 2.43.0 (0)
 -->
<!-- Title: helpertestpackageDependenciesGraph Pages: 1 -->
<svg width="1055pt" height="672pt"
 viewBox="0.00 0.00 1055.17 672.18" xmlns="http://www.w3.org/2000/svg" xmlns:xlink="http://www.w3.org/1999/xlink">
<g id="graph0" class="graph" transform="scale(1 1) rotate(0) translate(4 668.18)">
<title>helpertestpackageDependenciesGraph</title>
<polygon fill="white" stroke="transparent" points="-4,4 -4,-668.18 1051.17,-668.18 1051.17,4 -4,4"/>
<!-- helpertestpackage -->
<g id="node1" class="node">
<title>helpertestpackage</title>
<polygon fill="none" stroke="black" points="677.05,-664.18 523.05,-664.18 523.05,-628.18 677.05,-628.18 677.05,-664.18"/>
<text text-anchor="middle" x="600.05" y="-642.48" font-family="Times,serif" font-size="14.00">HelperTestPackage</text>
</g>
<!-- swiftcgiresponder -->
<g id="node3" class="node">
<title>swiftcgiresponder</title>
<g id="a_node3"><a xlink:href="https://github.com/YOCKOW/SwiftCGIResponder.git" xlink:title="CGIResponder\n@0.12.0">
<ellipse fill="none" stroke="black" cx="600.05" cy="-565.31" rx="84.71" ry="26.74"/>
<text text-anchor="middle" x="600.05" y="-569.11" font-family="Times,serif" font-size="14.00">CGIResponder</text>
<text text-anchor="middle" x="600.05" y="-554.11" font-family="Times,serif" font-size="14.00">@0.12.0</text>
</a>
</g>
</g>
<!-- helpertestpackage&#45;&gt;swiftcgiresponder -->
<g id="edge1" class="edge">
<title>helpertestpackage&#45;&gt;swiftcgiresponder</title>
<path fill="none" stroke="black" d="M600.05,-628.07C600.05,-620.58 600.05,-611.49 600.05,-602.61"/>
<polygon fill="black" stroke="black" points="603.55,-602.39 600.05,-592.39 596.55,-602.39 603.55,-602.39"/>
</g>
<!-- swiftbootstring -->
<g id="node2" class="node">
<title>swiftbootstring</title>
<g id="a_node2"><a xlink:href="https://github.com/YOCKOW/SwiftBootstring.git" xlink:title="Bootstring\n@1.2.0">
<ellipse fill="none" stroke="black" cx="65.05" cy="-26.87" rx="65.11" ry="26.74"/>
<text text-anchor="middle" x="65.05" y="-30.67" font-family="Times,serif" font-size="14.00">Bootstring</text>
<text text-anchor="middle" x="65.05" y="-15.67" font-family="Times,serif" font-size="14.00">@1.2.0</text>
</a>
</g>
</g>
<!-- swiftnetworkgear -->
<g id="node4" class="node">
<title>swiftnetworkgear</title>
<g id="a_node4"><a xlink:href="https://github.com/YOCKOW/SwiftNetworkGear.git" xlink:title="NetworkGear\n@0.19.5">
<ellipse fill="none" stroke="black" cx="353.05" cy="-385.83" rx="79.81" ry="26.74"/>
<text text-anchor="middle" x="353.05" y="-389.63" font-family="Times,serif" font-size="14.00">NetworkGear</text>
<text text-anchor="middle" x="353.05" y="-374.63" font-family="Times,serif" font-size="14.00">@0.19.5</text>
</a>
</g>
</g>
<!-- swiftcgiresponder&#45;&gt;swiftnetworkgear -->
<g id="edge2" class="edge">
<title>swiftcgiresponder&#45;&gt;swiftnetworkgear</title>
<path fill="none" stroke="black" d="M563.53,-541.06C545.97,-529.68 524.73,-515.62 506.05,-502.44 466.52,-474.54 422.56,-441.06 391.95,-417.32"/>
<polygon fill="black" stroke="black" points="393.72,-414.27 383.68,-410.9 389.43,-419.8 393.72,-414.27"/>
</g>
<!-- swifttemporaryfile -->
<g id="node8" class="node">
<title>swifttemporaryfile</title>
<g id="a_node8"><a xlink:href="https://github.com/YOCKOW/SwiftTemporaryFile.git" xlink:title="TemporaryFile\n@4.2.1">
<ellipse fill="none" stroke="black" cx="410.05" cy="-296.09" rx="85.62" ry="26.74"/>
<text text-anchor="middle" x="410.05" y="-299.89" font-family="Times,serif" font-size="14.00">TemporaryFile</text>
<text text-anchor="middle" x="410.05" y="-284.89" font-family="Times,serif" font-size="14.00">@4.2.1</text>
</a>
</g>
</g>
<!-- swiftcgiresponder&#45;&gt;swifttemporaryfile -->
<g id="edge3" class="edge">
<title>swiftcgiresponder&#45;&gt;swifttemporaryfile</title>
<path fill="none" stroke="black" d="M574.2,-539.43C563.43,-528.52 551.13,-515.29 541.05,-502.44 496.58,-445.7 453.24,-373.45 429.25,-331.52"/>
<polygon fill="black" stroke="black" points="432.28,-329.76 424.29,-322.8 426.19,-333.23 432.28,-329.76"/>
</g>
<!-- swifttimespecification -->
<g id="node9" class="node">
<title>swifttimespecification</title>
<g id="a_node9"><a xlink:href="https://github.com/YOCKOW/SwiftTimeSpecification.git" xlink:title="TimeSpecification\n@3.4.0">
<ellipse fill="none" stroke="black" cx="946.05" cy="-26.87" rx="101.23" ry="26.74"/>
<text text-anchor="middle" x="946.05" y="-30.67" font-family="Times,serif" font-size="14.00">TimeSpecification</text>
<text text-anchor="middle" x="946.05" y="-15.67" font-family="Times,serif" font-size="14.00">@3.4.0</text>
</a>
</g>
</g>
<!-- swiftcgiresponder&#45;&gt;swifttimespecification -->
<g id="edge4" class="edge">
<title>swiftcgiresponder&#45;&gt;swifttimespecification</title>
<path fill="none" stroke="black" d="M681.61,-557.79C783.91,-544.64 946.05,-505.14 946.05,-386.83 946.05,-386.83 946.05,-386.83 946.05,-205.35 946.05,-156.62 946.05,-100.37 946.05,-64.48"/>
<polygon fill="black" stroke="black" points="949.55,-64.03 946.05,-54.03 942.55,-64.03 949.55,-64.03"/>
</g>
<!-- swiftxhtml -->
<g id="node11" class="node">
<title>swiftxhtml</title>
<g id="a_node11"><a xlink:href="https://github.com/YOCKOW/SwiftXHTML.git" xlink:title="XHTML\n@2.8.0">
<ellipse fill="none" stroke="black" cx="600.05" cy="-475.57" rx="50.41" ry="26.74"/>
<text text-anchor="middle" x="600.05" y="-479.37" font-family="Times,serif" font-size="14.00">XHTML</text>
<text text-anchor="middle" x="600.05" y="-464.37" font-family="Times,serif" font-size="14.00">@2.8.0</text>
</a>
</g>
</g>
<!-- swiftcgiresponder&#45;&gt;swiftxhtml -->
<g id="edge5" class="edge">
<title>swiftcgiresponder&#45;&gt;swiftxhtml</title>
<path fill="none" stroke="black" d="M600.05,-537.99C600.05,-530.02 600.05,-521.13 600.05,-512.64"/>
<polygon fill="black" stroke="black" points="603.55,-512.57 600.05,-502.57 596.55,-512.57 603.55,-512.57"/>
</g>
<!-- yswiftextensions -->
<g id="node12" class="node">
<title>yswiftextensions</title>
<g id="a_node12"><a xlink:href="https://github.com/YOCKOW/ySwiftExtensions.git" xlink:title="yExtensions\n@1.12.1">
<ellipse fill="none" stroke="black" cx="664.05" cy="-206.35" rx="73.58" ry="26.74"/>
<text text-anchor="middle" x="664.05" y="-210.15" font-family="Times,serif" font-size="14.00">yExtensions</text>
<text text-anchor="middle" x="664.05" y="-195.15" font-family="Times,serif" font-size="14.00">@1.12.1</text>
</a>
</g>
</g>
<!-- swiftcgiresponder&#45;&gt;yswiftextensions -->
<g id="edge6" class="edge">
<title>swiftcgiresponder&#45;&gt;yswiftextensions</title>
<path fill="none" stroke="black" d="M639.56,-541.15C698.68,-503.91 807.84,-424.47 851.05,-322.96 860.41,-300.98 865.04,-288.58 851.05,-269.22 827.16,-236.14 784.9,-220.46 746.6,-213.14"/>
<polygon fill="black" stroke="black" points="746.89,-209.64 736.44,-211.37 745.69,-216.54 746.89,-209.64"/>
</g>
<!-- swiftnetworkgear&#45;&gt;swiftbootstring -->
<g id="edge7" class="edge">
<title>swiftnetworkgear&#45;&gt;swiftbootstring</title>
<path fill="none" stroke="black" d="M293.71,-367.67C267.78,-357.85 238.47,-343.35 217.05,-322.96 138.75,-248.38 93.57,-124.59 75.03,-63.8"/>
<polygon fill="black" stroke="black" points="78.29,-62.49 72.08,-53.9 71.58,-64.49 78.29,-62.49"/>
</g>
<!-- swiftpublicsuffix -->
<g id="node5" class="node">
<title>swiftpublicsuffix</title>
<g id="a_node5"><a xlink:href="https://github.com/YOCKOW/SwiftPublicSuffix.git" xlink:title="PublicSuffix\n@2.4.0">
<ellipse fill="none" stroke="black" cx="220.05" cy="-26.87" rx="72.25" ry="26.74"/>
<text text-anchor="middle" x="220.05" y="-30.67" font-family="Times,serif" font-size="14.00">PublicSuffix</text>
<text text-anchor="middle" x="220.05" y="-15.67" font-family="Times,serif" font-size="14.00">@2.4.0</text>
</a>
</g>
</g>
<!-- swiftnetworkgear&#45;&gt;swiftpublicsuffix -->
<g id="edge8" class="edge">
<title>swiftnetworkgear&#45;&gt;swiftpublicsuffix</title>
<path fill="none" stroke="black" d="M297.99,-366.3C277.67,-356.62 256.58,-342.59 244.05,-322.96 192.68,-242.43 203.25,-123.31 212.9,-64.07"/>
<polygon fill="black" stroke="black" points="216.37,-64.51 214.61,-54.06 209.47,-63.33 216.37,-64.51"/>
</g>
<!-- swiftranges -->
<g id="node6" class="node">
<title>swiftranges</title>
<g id="a_node6"><a xlink:href="https://github.com/YOCKOW/SwiftRanges.git" xlink:title="Ranges\n@3.2.2">
<ellipse fill="none" stroke="black" cx="552.05" cy="-26.87" rx="48.58" ry="26.74"/>
<text text-anchor="middle" x="552.05" y="-30.67" font-family="Times,serif" font-size="14.00">Ranges</text>
<text text-anchor="middle" x="552.05" y="-15.67" font-family="Times,serif" font-size="14.00">@3.2.2</text>
</a>
</g>
</g>
<!-- swiftnetworkgear&#45;&gt;swiftranges -->
<g id="edge9" class="edge">
<title>swiftnetworkgear&#45;&gt;swiftranges</title>
<path fill="none" stroke="black" d="M327.74,-360.04C318.75,-349.54 309.72,-336.59 305.05,-322.96 283.79,-260.86 308.83,-237.22 340.05,-179.48 363.35,-136.39 365.77,-120.3 404.05,-89.74 431.82,-67.58 468.67,-52.14 498.65,-42.23"/>
<polygon fill="black" stroke="black" points="500.07,-45.45 508.53,-39.07 497.94,-38.78 500.07,-45.45"/>
</g>
<!-- swiftnetworkgear&#45;&gt;swifttemporaryfile -->
<g id="edge10" class="edge">
<title>swiftnetworkgear&#45;&gt;swifttemporaryfile</title>
<path fill="none" stroke="black" d="M369.54,-359.45C375.28,-350.62 381.82,-340.56 387.94,-331.14"/>
<polygon fill="black" stroke="black" points="390.89,-333.01 393.41,-322.72 385.02,-329.19 390.89,-333.01"/>
</g>
<!-- swiftunicodesupplement -->
<g id="node10" class="node">
<title>swiftunicodesupplement</title>
<g id="a_node10"><a xlink:href="https://github.com/YOCKOW/SwiftUnicodeSupplement.git" xlink:title="UnicodeSupplement\n@1.7.0">
<ellipse fill="none" stroke="black" cx="552.05" cy="-116.61" rx="113.69" ry="26.74"/>
<text text-anchor="middle" x="552.05" y="-120.41" font-family="Times,serif" font-size="14.00">UnicodeSupplement</text>
<text text-anchor="middle" x="552.05" y="-105.41" font-family="Times,serif" font-size="14.00">@1.7.0</text>
</a>
</g>
</g>
<!-- swiftnetworkgear&#45;&gt;swiftunicodesupplement -->
<g id="edge11" class="edge">
<title>swiftnetworkgear&#45;&gt;swiftunicodesupplement</title>
<path fill="none" stroke="black" d="M333.25,-359.39C317.03,-335.21 299.13,-298.32 315.05,-269.22 349.42,-206.44 422.09,-165.86 477.95,-142.63"/>
<polygon fill="black" stroke="black" points="479.52,-145.78 487.47,-138.77 476.89,-139.29 479.52,-145.78"/>
</g>
<!-- swiftnetworkgear&#45;&gt;yswiftextensions -->
<g id="edge12" class="edge">
<title>swiftnetworkgear&#45;&gt;yswiftextensions</title>
<path fill="none" stroke="black" d="M407.99,-366.14C437.55,-355.19 474.18,-340.13 505.05,-322.96 529.28,-309.49 586.78,-266.56 625.58,-236.99"/>
<polygon fill="black" stroke="black" points="627.73,-239.75 633.55,-230.89 623.48,-234.18 627.73,-239.75"/>
</g>
<!-- swiftstringcomposition -->
<g id="node7" class="node">
<title>swiftstringcomposition</title>
<g id="a_node7"><a xlink:href="https://github.com/YOCKOW/SwiftStringComposition.git" xlink:title="StringComposition\n@2.2.0">
<ellipse fill="none" stroke="black" cx="735.05" cy="-296.09" rx="106.55" ry="26.74"/>
<text text-anchor="middle" x="735.05" y="-299.89" font-family="Times,serif" font-size="14.00">StringComposition</text>
<text text-anchor="middle" x="735.05" y="-284.89" font-family="Times,serif" font-size="14.00">@2.2.0</text>
</a>
</g>
</g>
<!-- swiftstringcomposition&#45;&gt;yswiftextensions -->
<g id="edge13" class="edge">
<title>swiftstringcomposition&#45;&gt;yswiftextensions</title>
<path fill="none" stroke="black" d="M714.52,-269.71C707.09,-260.54 698.6,-250.05 690.73,-240.32"/>
<polygon fill="black" stroke="black" points="693.31,-237.94 684.3,-232.37 687.87,-242.34 693.31,-237.94"/>
</g>
<!-- swifttemporaryfile&#45;&gt;swiftranges -->
<g id="edge14" class="edge">
<title>swifttemporaryfile&#45;&gt;swiftranges</title>
<path fill="none" stroke="black" d="M405.02,-269.09C398.43,-227.33 391.74,-144.46 429.05,-89.74 445.18,-66.1 473.11,-51.04 498.29,-41.71"/>
<polygon fill="black" stroke="black" points="499.49,-45 507.78,-38.4 497.18,-38.39 499.49,-45"/>
</g>
<!-- swifttemporaryfile&#45;&gt;yswiftextensions -->
<g id="edge15" class="edge">
<title>swifttemporaryfile&#45;&gt;yswiftextensions</title>
<path fill="none" stroke="black" d="M466.11,-275.73C506.36,-261.82 560.62,-243.08 602.15,-228.73"/>
<polygon fill="black" stroke="black" points="603.3,-232.04 611.61,-225.47 601.01,-225.42 603.3,-232.04"/>
</g>
<!-- swiftunicodesupplement&#45;&gt;swiftranges -->
<g id="edge16" class="edge">
<title>swiftunicodesupplement&#45;&gt;swiftranges</title>
<path fill="none" stroke="black" d="M552.05,-89.29C552.05,-81.32 552.05,-72.43 552.05,-63.94"/>
<polygon fill="black" stroke="black" points="555.55,-63.87 552.05,-53.87 548.55,-63.87 555.55,-63.87"/>
</g>
<!-- swiftxhtml&#45;&gt;swiftnetworkgear -->
<g id="edge17" class="edge">
<title>swiftxhtml&#45;&gt;swiftnetworkgear</title>
<path fill="none" stroke="black" d="M558.99,-459.98C520.14,-446.18 461.25,-425.27 416.39,-409.33"/>
<polygon fill="black" stroke="black" points="417.35,-405.96 406.75,-405.91 415.01,-412.55 417.35,-405.96"/>
</g>
<!-- swiftxhtml&#45;&gt;swiftranges -->
<g id="edge18" class="edge">
<title>swiftxhtml&#45;&gt;swiftranges</title>
<path fill="none" stroke="black" d="M639.03,-458.33C713.8,-425.94 870.05,-351.71 870.05,-297.09 870.05,-297.09 870.05,-297.09 870.05,-205.35 870.05,-87.58 701.7,-47.23 609.98,-33.99"/>
<polygon fill="black" stroke="black" points="610.39,-30.51 600.01,-32.61 609.43,-37.44 610.39,-30.51"/>
</g>
<!-- swiftxhtml&#45;&gt;swiftstringcomposition -->
<g id="edge19" class="edge">
<title>swiftxhtml&#45;&gt;swiftstringcomposition</title>
<path fill="none" stroke="black" d="M618.54,-450.26C642.14,-419.24 683.08,-365.42 709.61,-330.54"/>
<polygon fill="black" stroke="black" points="712.43,-332.61 715.7,-322.54 706.86,-328.38 712.43,-332.61"/>
</g>
<!-- swiftxhtml&#45;&gt;swiftunicodesupplement -->
<g id="edge20" class="edge">
<title>swiftxhtml&#45;&gt;swiftunicodesupplement</title>
<path fill="none" stroke="black" d="M596.56,-448.61C588.11,-385.76 566.54,-225.32 556.87,-153.42"/>
<polygon fill="black" stroke="black" points="560.33,-152.92 555.53,-143.47 553.4,-153.85 560.33,-152.92"/>
</g>
<!-- swiftxhtml&#45;&gt;yswiftextensions -->
<g id="edge21" class="edge">
<title>swiftxhtml&#45;&gt;yswiftextensions</title>
<path fill="none" stroke="black" d="M598.15,-448.63C596.16,-408.69 596,-330.36 619.05,-269.22 622.89,-259.05 628.87,-249.06 635.24,-240.17"/>
<polygon fill="black" stroke="black" points="638.16,-242.11 641.4,-232.02 632.58,-237.89 638.16,-242.11"/>
</g>
<!-- yswiftextensions&#45;&gt;swiftranges -->
<g id="edge22" class="edge">
<title>yswiftextensions&#45;&gt;swiftranges</title>
<path fill="none" stroke="black" d="M675,-179.42C683.66,-154.54 691.77,-116.86 675.05,-89.74 659.98,-65.29 631.97,-50.16 606.47,-40.99"/>
<polygon fill="black" stroke="black" points="607.45,-37.63 596.86,-37.76 605.22,-44.26 607.45,-37.63"/>
</g>
<!-- yswiftextensions&#45;&gt;swiftunicodesupplement -->
<g id="edge23" class="edge">
<title>yswiftextensions&#45;&gt;swiftunicodesupplement</title>
<path fill="none" stroke="black" d="M633.75,-181.61C620.86,-171.51 605.65,-159.6 591.87,-148.8"/>
<polygon fill="black" stroke="black" points="593.98,-146.01 583.95,-142.6 589.67,-151.52 593.98,-146.01"/>
</g>
</g>
</svg>
